<svg xmlns="http://www.w3.org/2000/svg" width="960" height="600" viewBox="0 0 960 600"><rect width="960" height="600" fill="#eaf0f5"/><g stroke="#cbd9e5" stroke-width="1"><path d="M0 0V600"/><path d="M50 0V600"/><path d="M100 0V600"/><path d="M150 0V600"/><path d="M200 0V600"/><path d="M250 0V600"/><path d="M300 0V600"/><path d="M350 0V600"/><path d="M400 0V600"/><path d="M450 0V600"/><path d="M500 0V600"/><path d="M550 0V600"/><path d="M600 0V600"/><path d="M650 0V600"/><path d="M700 0V600"/><path d="M750 0V600"/><path d="M800 0V600"/><path d="M850 0V600"/><path d="M900 0V600"/><path d="M950 0V600"/><path d="M0 0H960"/><path d="M0 50H960"/><path d="M0 100H960"/><path d="M0 150H960"/><path d="M0 200H960"/><path d="M0 250H960"/><path d="M0 300H960"/><path d="M0 350H960"/><path d="M0 400H960"/><path d="M0 450H960"/><path d="M0 500H960"/><path d="M0 550H960"/><path d="M0 600H960"/></g><rect x="200" y="110" width="560" height="380" rx="10" fill="#183e5b"/><rect x="229" y="139" width="502" height="322" rx="4" fill="none" stroke="#7094ad"/><g fill="#eff4f7" font-family="monospace"><text x="267" y="255" font-size="46">WRITE. BUILD.</text><text x="267" y="320" font-size="46">UNDERSTAND.</text><text x="269" y="407" font-size="15" letter-spacing="4" fill="#a8c5da">A SMALL SYSTEM FOR IDEAS</text></g><circle cx="730" cy="116" r="36" fill="#d1a774"/><path d="M730 99v34m-17-17h34" stroke="#fff" stroke-width="2"/></svg>